<svg id="vector" xmlns="http://www.w3.org/2000/svg" width="48.0d" height="48.0d" viewBox="0 0 48.0 48.0"><path fill="#808080ff" d="M15.38,1.02l5.12,5.32l-6.32,2.72l1.2,-8.04z" id="path_0"/><path fill="#808080ff" d="M32.63,1.02l-5.13,5.32l6.32,2.72l-1.19,-8.04z" id="path_1"/><path fill="#666666ff" d="M33.82,9.06l-4.77,-1.82l3.58,-6.22l1.19,8.04z" id="path_2"/><path fill="#666666ff" d="M15.38,1.02l3.57,6.22l-4.77,1.82l1.2,-8.04z" id="path_3"/><path fill="#808080ff" d="M9,18.5a15,15 0,0 1,30 0Z" id="path_4"/><path fill="#ffffffff" d="M19.5,15.25a4.5,3.25 0,1 0,9 0a4.5,3.25 0,1 0,-9 0z" id="path_5"/><path fill="#000000ff" d="M20.5,11c0,1.73 -3,1.73 -3,0S20.5,9.35 20.5,11Z" id="path_6"/><path fill="#000000ff" d="M30.5,11c0,1.73 -3,1.73 -3,0S30.5,9.35 30.5,11Z" id="path_7"/><path fill="#000000ff" d="M25.15,13c0,1.28 -2.3,1.28 -2.3,0S25.15,11.73 25.15,13Z" id="path_8"/><path fill="#00000000" d="M29,14.29a2.78,2.78 0,0 1,-2.33 1.41A2.75,2.75 0,0 1,24 13" stroke="#000000ff" stroke-width="1.25" stroke-linecap="round" id="path_9"/><path fill="#00000000" d="M24,13a2.66,2.66 0,0 1,-2.67 2.69A2.53,2.53 0,0 1,19 14.29" stroke="#000000ff" stroke-width="1.25" stroke-linecap="round" id="path_10"/><path fill="#808080ff" d="M9,20h30v18h-30z" id="path_11"/><path fill="#ffffffff" d="M11.5,43m-2.5,0a2.5,2.5 0,1 1,5 0a2.5,2.5 0,1 1,-5 0" id="path_12"/><path fill="#808080ff" d="M9,37h5v6h-5z" id="path_13"/><path fill="#ffffffff" d="M29.5,43m-2.5,0a2.5,2.5 0,1 1,5 0a2.5,2.5 0,1 1,-5 0" id="path_14"/><path fill="#808080ff" d="M27,37h5v6h-5z" id="path_15"/><path fill="#ffffffff" d="M36.5,43m-2.5,0a2.5,2.5 0,1 1,5 0a2.5,2.5 0,1 1,-5 0" id="path_16"/><path fill="#808080ff" d="M34,37h5v6h-5z" id="path_17"/><path fill="#ffffffff" d="M18.5,43m-2.5,0a2.5,2.5 0,1 1,5 0a2.5,2.5 0,1 1,-5 0" id="path_18"/><path fill="#808080ff" d="M16,37h5v6h-5z" id="path_19"/><path fill="#00000000" d="M35,35.5h5.9a3.8,3.8 0,0 0,3.8 -3.8V25.5" stroke="#808080ff" stroke-width="5.0" stroke-linecap="round" id="path_20"/><path fill="#666666ff" d="M40,38l0,-5l-1,0l0,5l1,0z" id="path_21"/><path fill="#ffffffff" d="M20.5,25A6.47,6.47 0,0 0,14 31.5V38H27V31.5A6.47,6.47 0,0 0,20.5 25Z" id="path_22"/><path fill="#666666ff" d="M16,38h5v1h-5z" id="path_23"/><path fill="#3ddc84ff" d="M9,18.5h30v1.5h-30z" id="path_24"/><path fill="#3ddc84ff" d="M29,16.75l-10,5l0,-5l10,5l0,-5z" id="path_25"/></svg>